# xmcd
#
# Track frame offsets: 
#        150
#        13460
#        25857
#        35155
#        48500
#        61422
#        73690
#        87152
#        98487
#        115492
#        128032
#        139382
#        152452
#
# Disc length: 2189 seconds
#
# Revision: 1
# Processed by: cddbd v1.5.2PL0 Copyright (c) Steve Scherf et al.
# Submitted via: ExactAudioCopy v1.0b3
#
DISCID=b4088b0d
DTITLE=Albert King - Live On Memory Lane
DYEAR=1995
DGENRE=Blues
TTITLE0=I Walked All Night Long
TTITLE1=This Morning
TTITLE2=Had You Told Me Like It Was
TTITLE3=Don't Throw Your Love On Me So Strong
TTITLE4=Let's Have A Natural Ball
TTITLE5=Travellin' To California
TTITLE6=I've Made Nights By Myself
TTITLE7=Oowee Baby
TTITLE8=Dynaflow
TTITLE9=This Funny Feeling
TTITLE10=Monologue
TTITLE11=I Get Evil
TTITLE12=Bonus Track
EXTD=YEAR: 1995 ID3G: 0
EXTT0=
EXTT1=
EXTT2=
EXTT3=
EXTT4=
EXTT5=
EXTT6=
EXTT7=
EXTT8=
EXTT9=
EXTT10=
EXTT11=
EXTT12=
PLAYORDER=
